<svg width="15" height="15" viewBox="0 0 15 15" fill="none" xmlns="http://www.w3.org/2000/svg">
<g id="schedule">
<mask id="mask0_1_81" style="mask-type:alpha" maskUnits="userSpaceOnUse" x="0" y="0" width="15" height="15">
<rect id="Bounding box" width="15" height="15" fill="#D9D9D9"/>
</mask>
<g mask="url(#mask0_1_81)">
<path id="schedule_2" d="M7.96872 7.31008V4.84372C7.96872 4.71092 7.92378 4.59959 7.83391 4.50975C7.74402 4.41991 7.63265 4.37499 7.49978 4.37499C7.36691 4.37499 7.2556 4.41991 7.16586 4.50975C7.07612 4.59959 7.03125 4.71092 7.03125 4.84372V7.45431C7.03125 7.52789 7.04487 7.59916 7.07211 7.66814C7.09935 7.73712 7.14222 7.80086 7.20072 7.85936L9.34134 9.99999C9.42789 10.0865 9.53666 10.1308 9.66766 10.1328C9.79867 10.1348 9.90944 10.0905 9.99999 9.99999C10.0905 9.90944 10.1358 9.79967 10.1358 9.67067C10.1358 9.54166 10.0905 9.43189 9.99999 9.34134L7.96872 7.31008ZM7.50103 13.4375C6.67982 13.4375 5.90793 13.2816 5.18534 12.97C4.46275 12.6583 3.8342 12.2353 3.29969 11.7011C2.76517 11.1668 2.34201 10.5385 2.0302 9.81624C1.7184 9.09398 1.5625 8.32224 1.5625 7.50103C1.5625 6.67982 1.71833 5.90793 2.03 5.18534C2.34167 4.46275 2.76464 3.8342 3.29891 3.29969C3.83319 2.76517 4.46146 2.34201 5.18373 2.0302C5.90599 1.7184 6.67773 1.5625 7.49894 1.5625C8.32015 1.5625 9.09204 1.71833 9.81463 2.03C10.5372 2.34167 11.1658 2.76464 11.7003 3.29891C12.2348 3.83319 12.658 4.46146 12.9698 5.18374C13.2816 5.906 13.4375 6.67773 13.4375 7.49894C13.4375 8.32015 13.2816 9.09204 12.97 9.81463C12.6583 10.5372 12.2353 11.1658 11.7011 11.7003C11.1668 12.2348 10.5385 12.658 9.81624 12.9698C9.09398 13.2816 8.32224 13.4375 7.50103 13.4375ZM7.49998 12.5C8.8854 12.5 10.0651 12.013 11.039 11.039C12.013 10.0651 12.5 8.8854 12.5 7.49999C12.5 6.11457 12.013 4.93488 11.039 3.96092C10.0651 2.98696 8.8854 2.49998 7.49998 2.49998C6.11457 2.49998 4.93488 2.98696 3.96092 3.96092C2.98696 4.93488 2.49998 6.11457 2.49998 7.49999C2.49998 8.8854 2.98696 10.0651 3.96092 11.039C4.93488 12.013 6.11457 12.5 7.49998 12.5Z" fill="#999999"/>
</g>
</g>
</svg>
