<svg width="36" height="36" viewBox="0 0 36 36" fill="none" xmlns="http://www.w3.org/2000/svg">
<g id="Frame">
<g id="Group">
<path id="Vector" d="M21.1605 16.119C21.7799 15.3865 22.1213 14.4592 22.125 13.5C22.125 11.2245 20.2755 9.375 18 9.375C15.7245 9.375 13.875 11.2245 13.875 13.5C13.875 14.499 14.247 15.405 14.8395 16.119C13.9157 16.5723 13.0932 17.2077 12.4212 17.9869C11.7491 18.7661 11.2416 19.6732 10.929 20.6535C10.7385 21.2445 12.8805 21.9345 13.071 21.345C13.7895 19.1205 15.771 17.625 18 17.625C20.229 17.625 22.2105 19.1205 22.929 21.345C23.0835 21.8205 25.2615 21.2445 25.071 20.6535C24.7588 19.6729 24.2514 18.7657 23.5794 17.9864C22.9073 17.2071 22.0845 16.5719 21.1605 16.119ZM16.125 13.5C16.125 12.4665 16.9665 11.625 18 11.625C19.0335 11.625 19.875 12.4665 19.875 13.5C19.875 14.5335 19.0335 15.375 18 15.375C16.9665 15.375 16.125 14.5335 16.125 13.5Z" fill="#549BFF"/>
<path id="Vector_2" d="M31.125 20.292V9C31.1242 7.90623 30.6894 6.85748 29.9159 6.08406C29.1425 5.31065 28.0938 4.87579 27 4.875H9C7.90623 4.87579 6.85748 5.31065 6.08406 6.08406C5.31065 6.85748 4.87579 7.90623 4.875 9V20.292C3.9825 20.8125 3.375 21.7695 3.375 22.875V25.5C3.37698 26.9912 3.97025 28.4208 5.02472 29.4753C6.07918 30.5297 7.50877 31.123 9 31.125H27C28.4912 31.123 29.9208 30.5297 30.9753 29.4753C32.0297 28.4208 32.623 26.9912 32.625 25.5V22.875C32.625 21.7695 32.0175 20.8125 31.125 20.292ZM9 7.125H27C28.0335 7.125 28.875 7.9665 28.875 9V19.875H24.375C22.7205 19.875 21.375 21.2205 21.375 22.875C21.375 23.2875 21.0375 23.625 20.625 23.625H15.375C15.1762 23.6246 14.9857 23.5455 14.8451 23.4049C14.7045 23.2643 14.6254 23.0738 14.625 22.875C14.625 21.2205 13.2795 19.875 11.625 19.875H7.125V9C7.125 7.9665 7.9665 7.125 9 7.125ZM30.375 25.5C30.375 27.36 28.86 28.875 27 28.875H9C7.14 28.875 5.625 27.36 5.625 25.5V22.875C5.625 22.4625 5.9625 22.125 6.375 22.125H11.625C12.0375 22.125 12.375 22.4625 12.375 22.875C12.375 24.5295 13.7205 25.875 15.375 25.875H20.625C22.2795 25.875 23.625 24.5295 23.625 22.875C23.625 22.4625 23.9625 22.125 24.375 22.125H29.625C30.0375 22.125 30.375 22.4625 30.375 22.875V25.5Z" fill="#112D55"/>
</g>
</g>
</svg>
