<svg width="20" height="20" viewBox="0 0 20 20" fill="none" xmlns="http://www.w3.org/2000/svg">
<mask id="mask0_7_7" style="mask-type:alpha" maskUnits="userSpaceOnUse" x="0" y="0" width="20" height="20">
<rect x="0.477905" width="19.469" height="19.469" fill="#D9D9D9"/>
</mask>
<g mask="url(#mask0_7_7)">
<path d="M4.53395 17.8466C4.08778 17.8466 3.70584 17.6877 3.38811 17.37C3.07039 17.0523 2.91153 16.6703 2.91153 16.2242V4.86727C2.91153 4.4211 3.07039 4.03916 3.38811 3.72144C3.70584 3.40371 4.08778 3.24485 4.53395 3.24485H5.34515V2.43364C5.34515 2.2038 5.42289 2.01114 5.57838 1.85566C5.73386 1.70018 5.92652 1.62244 6.15636 1.62244C6.3862 1.62244 6.57887 1.70018 6.73435 1.85566C6.88983 2.01114 6.96757 2.2038 6.96757 2.43364V3.24485H13.4572V2.43364C13.4572 2.2038 13.535 2.01114 13.6905 1.85566C13.8459 1.70018 14.0386 1.62244 14.2684 1.62244C14.4983 1.62244 14.6909 1.70018 14.8464 1.85566C15.0019 2.01114 15.0797 2.2038 15.0797 2.43364V3.24485H15.8909C16.337 3.24485 16.719 3.40371 17.0367 3.72144C17.3544 4.03916 17.5133 4.4211 17.5133 4.86727V16.2242C17.5133 16.6703 17.3544 17.0523 17.0367 17.37C16.719 17.6877 16.337 17.8466 15.8909 17.8466H4.53395ZM4.53395 16.2242H15.8909V8.1121H4.53395V16.2242ZM10.2124 11.3569C9.98256 11.3569 9.7899 11.2792 9.63442 11.1237C9.47894 10.9682 9.40119 10.7756 9.40119 10.5457C9.40119 10.3159 9.47894 10.1232 9.63442 9.96774C9.7899 9.81226 9.98256 9.73452 10.2124 9.73452C10.4422 9.73452 10.6349 9.81226 10.7904 9.96774C10.9459 10.1232 11.0236 10.3159 11.0236 10.5457C11.0236 10.7756 10.9459 10.9682 10.7904 11.1237C10.6349 11.2792 10.4422 11.3569 10.2124 11.3569ZM6.96757 11.3569C6.73773 11.3569 6.54507 11.2792 6.38958 11.1237C6.2341 10.9682 6.15636 10.7756 6.15636 10.5457C6.15636 10.3159 6.2341 10.1232 6.38958 9.96774C6.54507 9.81226 6.73773 9.73452 6.96757 9.73452C7.19741 9.73452 7.39007 9.81226 7.54556 9.96774C7.70104 10.1232 7.77878 10.3159 7.77878 10.5457C7.77878 10.7756 7.70104 10.9682 7.54556 11.1237C7.39007 11.2792 7.19741 11.3569 6.96757 11.3569ZM13.4572 11.3569C13.2274 11.3569 13.0347 11.2792 12.8792 11.1237C12.7238 10.9682 12.646 10.7756 12.646 10.5457C12.646 10.3159 12.7238 10.1232 12.8792 9.96774C13.0347 9.81226 13.2274 9.73452 13.4572 9.73452C13.6871 9.73452 13.8797 9.81226 14.0352 9.96774C14.1907 10.1232 14.2684 10.3159 14.2684 10.5457C14.2684 10.7756 14.1907 10.9682 14.0352 11.1237C13.8797 11.2792 13.6871 11.3569 13.4572 11.3569ZM10.2124 14.6018C9.98256 14.6018 9.7899 14.524 9.63442 14.3685C9.47894 14.2131 9.40119 14.0204 9.40119 13.7906C9.40119 13.5607 9.47894 13.3681 9.63442 13.2126C9.7899 13.0571 9.98256 12.9793 10.2124 12.9793C10.4422 12.9793 10.6349 13.0571 10.7904 13.2126C10.9459 13.3681 11.0236 13.5607 11.0236 13.7906C11.0236 14.0204 10.9459 14.2131 10.7904 14.3685C10.6349 14.524 10.4422 14.6018 10.2124 14.6018ZM6.96757 14.6018C6.73773 14.6018 6.54507 14.524 6.38958 14.3685C6.2341 14.2131 6.15636 14.0204 6.15636 13.7906C6.15636 13.5607 6.2341 13.3681 6.38958 13.2126C6.54507 13.0571 6.73773 12.9793 6.96757 12.9793C7.19741 12.9793 7.39007 13.0571 7.54556 13.2126C7.70104 13.3681 7.77878 13.5607 7.77878 13.7906C7.77878 14.0204 7.70104 14.2131 7.54556 14.3685C7.39007 14.524 7.19741 14.6018 6.96757 14.6018ZM13.4572 14.6018C13.2274 14.6018 13.0347 14.524 12.8792 14.3685C12.7238 14.2131 12.646 14.0204 12.646 13.7906C12.646 13.5607 12.7238 13.3681 12.8792 13.2126C13.0347 13.0571 13.2274 12.9793 13.4572 12.9793C13.6871 12.9793 13.8797 13.0571 14.0352 13.2126C14.1907 13.3681 14.2684 13.5607 14.2684 13.7906C14.2684 14.0204 14.1907 14.2131 14.0352 14.3685C13.8797 14.524 13.6871 14.6018 13.4572 14.6018Z" fill="#999999"/>
</g>
</svg>
