<svg width="15" height="15" viewBox="0 0 15 15" fill="none" xmlns="http://www.w3.org/2000/svg">
<g id="calendar_month">
<mask id="mask0_1_76" style="mask-type:alpha" maskUnits="userSpaceOnUse" x="0" y="0" width="15" height="15">
<rect id="Bounding box" width="15" height="15" fill="#D9D9D9"/>
</mask>
<g mask="url(#mask0_1_76)">
<path id="calendar_month_2" d="M3.31731 13.4375C3.0016 13.4375 2.73438 13.3281 2.51563 13.1094C2.29688 12.8906 2.1875 12.6234 2.1875 12.3077V3.94234C2.1875 3.62663 2.29688 3.3594 2.51563 3.14065C2.73438 2.9219 3.0016 2.81253 3.31731 2.81253H4.1827V1.97117C4.1827 1.83416 4.22858 1.71978 4.32033 1.62803C4.41207 1.53629 4.52645 1.49042 4.66347 1.49042C4.80048 1.49042 4.91486 1.53629 5.00661 1.62803C5.09835 1.71978 5.14422 1.83416 5.14422 1.97117V2.81253H9.87978V1.95915C9.87978 1.82614 9.92465 1.71477 10.0144 1.62503C10.1041 1.53529 10.2155 1.49042 10.3485 1.49042C10.4815 1.49042 10.5929 1.53529 10.6826 1.62503C10.7724 1.71477 10.8173 1.82614 10.8173 1.95915V2.81253H11.6827C11.9984 2.81253 12.2656 2.9219 12.4843 3.14065C12.7031 3.3594 12.8125 3.62663 12.8125 3.94234V12.3077C12.8125 12.6234 12.7031 12.8906 12.4843 13.1094C12.2656 13.3281 11.9984 13.4375 11.6827 13.4375H3.31731ZM3.31731 12.5H11.6827C11.7307 12.5 11.7748 12.48 11.8149 12.4399C11.855 12.3998 11.875 12.3558 11.875 12.3077V6.44234H3.12498V12.3077C3.12498 12.3558 3.14502 12.3998 3.18508 12.4399C3.22515 12.48 3.26923 12.5 3.31731 12.5ZM3.12498 5.50486H11.875V3.94234C11.875 3.89426 11.855 3.85018 11.8149 3.81011C11.7748 3.77004 11.7307 3.75001 11.6827 3.75001H3.31731C3.26923 3.75001 3.22515 3.77004 3.18508 3.81011C3.14502 3.85018 3.12498 3.89426 3.12498 3.94234V5.50486ZM7.49998 8.79809C7.34694 8.79809 7.21654 8.7442 7.10877 8.63643C7.001 8.52866 6.94711 8.39826 6.94711 8.24521C6.94711 8.09217 7.001 7.96177 7.10877 7.854C7.21654 7.74622 7.34694 7.69234 7.49998 7.69234C7.65303 7.69234 7.78343 7.74622 7.8912 7.854C7.99897 7.96177 8.05286 8.09217 8.05286 8.24521C8.05286 8.39826 7.99897 8.52866 7.8912 8.63643C7.78343 8.7442 7.65303 8.79809 7.49998 8.79809ZM4.99998 8.79809C4.84694 8.79809 4.71654 8.7442 4.60877 8.63643C4.50099 8.52866 4.44711 8.39826 4.44711 8.24521C4.44711 8.09217 4.50099 7.96177 4.60877 7.854C4.71654 7.74622 4.84694 7.69234 4.99998 7.69234C5.15303 7.69234 5.28343 7.74622 5.3912 7.854C5.49897 7.96177 5.55286 8.09217 5.55286 8.24521C5.55286 8.39826 5.49897 8.52866 5.3912 8.63643C5.28343 8.7442 5.15303 8.79809 4.99998 8.79809ZM9.99999 8.79809C9.84694 8.79809 9.71654 8.7442 9.60877 8.63643C9.501 8.52866 9.44711 8.39826 9.44711 8.24521C9.44711 8.09217 9.501 7.96177 9.60877 7.854C9.71654 7.74622 9.84694 7.69234 9.99999 7.69234C10.153 7.69234 10.2834 7.74622 10.3912 7.854C10.499 7.96177 10.5529 8.09217 10.5529 8.24521C10.5529 8.39826 10.499 8.52866 10.3912 8.63643C10.2834 8.7442 10.153 8.79809 9.99999 8.79809ZM7.49998 11.25C7.34694 11.25 7.21654 11.1961 7.10877 11.0884C7.001 10.9806 6.94711 10.8502 6.94711 10.6971C6.94711 10.5441 7.001 10.4137 7.10877 10.3059C7.21654 10.1981 7.34694 10.1442 7.49998 10.1442C7.65303 10.1442 7.78343 10.1981 7.8912 10.3059C7.99897 10.4137 8.05286 10.5441 8.05286 10.6971C8.05286 10.8502 7.99897 10.9806 7.8912 11.0884C7.78343 11.1961 7.65303 11.25 7.49998 11.25ZM4.99998 11.25C4.84694 11.25 4.71654 11.1961 4.60877 11.0884C4.50099 10.9806 4.44711 10.8502 4.44711 10.6971C4.44711 10.5441 4.50099 10.4137 4.60877 10.3059C4.71654 10.1981 4.84694 10.1442 4.99998 10.1442C5.15303 10.1442 5.28343 10.1981 5.3912 10.3059C5.49897 10.4137 5.55286 10.5441 5.55286 10.6971C5.55286 10.8502 5.49897 10.9806 5.3912 11.0884C5.28343 11.1961 5.15303 11.25 4.99998 11.25ZM9.99999 11.25C9.84694 11.25 9.71654 11.1961 9.60877 11.0884C9.501 10.9806 9.44711 10.8502 9.44711 10.6971C9.44711 10.5441 9.501 10.4137 9.60877 10.3059C9.71654 10.1981 9.84694 10.1442 9.99999 10.1442C10.153 10.1442 10.2834 10.1981 10.3912 10.3059C10.499 10.4137 10.5529 10.5441 10.5529 10.6971C10.5529 10.8502 10.499 10.9806 10.3912 11.0884C10.2834 11.1961 10.153 11.25 9.99999 11.25Z" fill="#999999"/>
</g>
</g>
</svg>
