<svg width="22" height="22" viewBox="0 0 22 22" fill="none" xmlns="http://www.w3.org/2000/svg">
<mask id="mask0_7_3" style="mask-type:alpha" maskUnits="userSpaceOnUse" x="0" y="0" width="22" height="22">
<rect x="0.477905" width="21.469" height="21.469" fill="#D9D9D9"/>
</mask>
<g mask="url(#mask0_7_3)">
<path d="M13.0015 8.05084C12.748 8.05084 12.5355 7.96512 12.3641 7.79366C12.1926 7.62221 12.1069 7.40975 12.1069 7.1563V3.57814C12.1069 3.32468 12.1926 3.11223 12.3641 2.94077C12.5355 2.76932 12.748 2.68359 13.0015 2.68359H18.3687C18.6222 2.68359 18.8346 2.76932 19.0061 2.94077C19.1775 3.11223 19.2632 3.32468 19.2632 3.57814V7.1563C19.2632 7.40975 19.1775 7.62221 19.0061 7.79366C18.8346 7.96512 18.6222 8.05084 18.3687 8.05084H13.0015ZM4.05604 11.629C3.80259 11.629 3.59013 11.5433 3.41868 11.3718C3.24723 11.2004 3.1615 10.9879 3.1615 10.7345V3.57814C3.1615 3.32468 3.24723 3.11223 3.41868 2.94077C3.59013 2.76932 3.80259 2.68359 4.05604 2.68359H9.42329C9.67674 2.68359 9.8892 2.76932 10.0606 2.94077C10.2321 3.11223 10.3178 3.32468 10.3178 3.57814V10.7345C10.3178 10.9879 10.2321 11.2004 10.0606 11.3718C9.8892 11.5433 9.67674 11.629 9.42329 11.629H4.05604ZM13.0015 18.7853C12.748 18.7853 12.5355 18.6996 12.3641 18.5282C12.1926 18.3567 12.1069 18.1443 12.1069 17.8908V10.7345C12.1069 10.481 12.1926 10.2686 12.3641 10.0971C12.5355 9.92565 12.748 9.83993 13.0015 9.83993H18.3687C18.6222 9.83993 18.8346 9.92565 19.0061 10.0971C19.1775 10.2686 19.2632 10.481 19.2632 10.7345V17.8908C19.2632 18.1443 19.1775 18.3567 19.0061 18.5282C18.8346 18.6996 18.6222 18.7853 18.3687 18.7853H13.0015ZM4.05604 18.7853C3.80259 18.7853 3.59013 18.6996 3.41868 18.5282C3.24723 18.3567 3.1615 18.1443 3.1615 17.8908V14.3126C3.1615 14.0592 3.24723 13.8467 3.41868 13.6753C3.59013 13.5038 3.80259 13.4181 4.05604 13.4181H9.42329C9.67674 13.4181 9.8892 13.5038 10.0606 13.6753C10.2321 13.8467 10.3178 14.0592 10.3178 14.3126V17.8908C10.3178 18.1443 10.2321 18.3567 10.0606 18.5282C9.8892 18.6996 9.67674 18.7853 9.42329 18.7853H4.05604Z" fill="#FAA807"/>
</g>
</svg>
