<svg width="15" height="15" viewBox="0 0 15 15" fill="none" xmlns="http://www.w3.org/2000/svg">
<path d="M6.13586 1.09257L6.36443 1.19625V0H5.49628V1.21119L5.78095 1.08896C5.83711 1.06486 5.89768 1.05273 5.95879 1.05335C6.01989 1.05397 6.0802 1.06733 6.13586 1.09257Z" fill="#999999"/>
<path d="M14.547 2.16425C14.5455 2.16278 13.7293 2.16709 13.7296 2.16278V0.8804C13.7296 0.87958 13.7303 0.878906 13.7311 0.878906H14.547C15.1393 0.860713 15.1511 0.0265723 14.5608 0H7.24334V1.86809C7.25204 2.19015 6.90912 2.41315 6.62236 2.2783L5.94947 1.97312L5.2302 2.28193C4.94087 2.40981 4.60882 2.1844 4.6174 1.86606V2.92969e-05H2.70648C2.24664 0 1.87384 0.372773 1.87384 0.832646V2.21054C1.87384 2.67038 2.24661 3.04318 2.70648 3.04318H14.5608C15.1511 3.01646 15.1394 2.18259 14.547 2.16425ZM12.2935 3.88734H0.439255C-0.151018 3.91403 -0.139387 4.74788 0.453054 4.76625H1.26894C1.26933 4.76625 1.2697 4.7664 1.26998 4.76668C1.27025 4.76695 1.27041 4.76733 1.27041 4.76771V6.0501C1.27041 6.05049 1.27025 6.05087 1.26997 6.05115C1.26969 6.05143 1.26931 6.05159 1.26891 6.05159H0.453025C-0.139885 6.07017 -0.150579 6.90404 0.439255 6.9305H12.2935C12.7534 6.9305 13.1262 6.55772 13.1262 6.09785V4.71996C13.1262 4.26012 12.7534 3.88734 12.2935 3.88734ZM13.5826 7.91068H1.72829C1.13801 7.93737 1.14965 8.77122 1.74209 8.78959H2.55798C2.55836 8.78959 2.55874 8.78974 2.55901 8.79002C2.55929 8.79029 2.55944 8.79067 2.55944 8.79105V10.0734C2.55944 10.0738 2.55928 10.0742 2.559 10.0745C2.55872 10.0748 2.55834 10.0749 2.55795 10.0749H1.74206C1.14915 10.0935 1.13845 10.9274 1.72829 10.9538H13.5826C14.0424 10.9538 14.4152 10.5811 14.4152 10.1212V8.7433C14.4152 8.28349 14.0424 7.91068 13.5826 7.91068ZM4.18246 12.9624C4.23861 12.9383 4.29917 12.9261 4.36027 12.9268C4.42138 12.9274 4.48168 12.9407 4.53733 12.966L4.76591 13.0697V11.9568H3.89775V13.0846L4.18246 12.9624Z" fill="#999999"/>
<path d="M12.6804 14.121H11.8645C11.8641 14.121 11.8637 14.1209 11.8634 14.1206C11.8632 14.1203 11.863 14.12 11.863 14.1196V12.8372C11.863 12.8364 11.8637 12.8357 11.8645 12.8357H12.6804C13.2733 12.8171 13.284 11.9832 12.6942 11.9568H5.64483V13.7515C5.64484 13.825 5.62641 13.8973 5.59123 13.9618C5.55605 14.0264 5.50524 14.0811 5.44346 14.1209C5.38167 14.1607 5.31089 14.1844 5.23758 14.1897C5.16427 14.1951 5.09079 14.182 5.02385 14.1517L4.35096 13.8465L3.63169 14.1553C3.56485 14.184 3.49192 14.1956 3.41946 14.1892C3.34699 14.1828 3.27726 14.1585 3.21651 14.1184C3.15577 14.0784 3.10591 14.0239 3.07141 13.9599C3.03691 13.8958 3.01886 13.8242 3.01886 13.7515V11.9568H0.839849C0.380005 11.9568 0.00720215 12.3296 0.00720215 12.7894V14.1673C0.00720215 14.6272 0.379976 14.9999 0.839849 14.9999H12.6941C13.2844 14.9733 13.2728 14.1394 12.6804 14.121Z" fill="#999999"/>
</svg>
