<svg width="15" height="15" viewBox="0 0 15 15" fill="none" xmlns="http://www.w3.org/2000/svg">
<g clip-path="url(#clip0_7_18)">
<path d="M7.5 3.60546C8.48434 3.60546 9.28515 2.8046 9.28515 1.82031C9.28515 0.836015 8.48434 0.0351562 7.5 0.0351562C6.51565 0.0351562 5.71484 0.836015 5.71484 1.82031C5.71484 2.8046 6.51565 3.60546 7.5 3.60546ZM7.87535 4.18288C7.83565 4.13965 7.77762 4.11788 7.71894 4.11788H7.28106C7.22237 4.11788 7.16434 4.13965 7.12464 4.18288C7.09525 4.21471 7.07681 4.25509 7.07199 4.29814C7.06718 4.34119 7.07625 4.38465 7.09787 4.42218L7.33191 4.77505L7.22232 5.6994L7.43808 6.27339C7.45914 6.33112 7.54075 6.33112 7.56181 6.27339L7.77757 5.6994L7.66798 4.77505L7.90202 4.42218C7.9237 4.38467 7.9328 4.34121 7.92801 4.29815C7.92321 4.25509 7.90476 4.2147 7.87535 4.18288Z" fill="#999999"/>
<path d="M4.75096 8.30652H10.2489C10.3164 8.30644 10.381 8.27962 10.4287 8.23195C10.4763 8.18428 10.5032 8.11965 10.5032 8.05223V5.76167C10.5032 5.0943 10.0706 4.50167 9.42667 4.28708L8.92465 4.13299C8.88039 4.11935 8.83259 4.12325 8.79114 4.14388C8.74968 4.1645 8.71774 4.20027 8.70192 4.24379L7.5 7.54157L6.29808 4.24374C6.28541 4.20895 6.26236 4.1789 6.23204 4.15764C6.20173 4.13638 6.16561 4.12496 6.12859 4.1249C6.11061 4.1249 6.09273 4.12761 6.07556 4.13293L5.57737 4.28576C4.92934 4.50172 4.49672 5.0943 4.49672 5.76167V8.05223C4.49678 8.11964 4.52359 8.18427 4.57125 8.23195C4.61892 8.27962 4.68355 8.30644 4.75096 8.30652ZM1.7851 4.51788C2.76944 4.51788 3.57025 3.71708 3.57025 2.73278C3.57025 1.74844 2.76939 0.947632 1.7851 0.947632C0.800808 0.947632 0 1.74849 0 2.73278C0 3.71713 0.800808 4.51788 1.7851 4.51788Z" fill="#999999"/>
<path d="M4.82379 9.42521H3.40197V6.61687C3.40197 5.72389 2.67808 5.00001 1.78515 5.00001C0.892224 5.00001 0.168335 5.72389 0.168335 6.61682V10.4317C0.168335 11.289 0.863335 11.984 1.72066 11.984H3.56546V14.5261C3.56546 14.6425 3.61168 14.7541 3.69396 14.8363C3.77624 14.9186 3.88783 14.9649 4.00419 14.9649H5.70748C5.82384 14.9649 5.93543 14.9186 6.01771 14.8363C6.09999 14.7541 6.14621 14.6425 6.14621 14.5261V10.7476C6.14621 10.0173 5.55414 9.42521 4.82379 9.42521ZM13.2149 4.51788C14.1992 4.51788 15 3.71708 15 2.73278C15 1.74844 14.1992 0.947632 13.2149 0.947632C12.2306 0.947632 11.4298 1.74849 11.4298 2.73278C11.4297 3.71713 12.2306 4.51788 13.2149 4.51788ZM13.2149 5.00001C12.3219 5.00001 11.598 5.72389 11.598 6.61682V9.42516H10.1763C9.44591 9.42516 8.85384 10.0172 8.85384 10.7476V14.5261C8.85384 14.6424 8.90006 14.754 8.98234 14.8363C9.06462 14.9186 9.17622 14.9648 9.29258 14.9648H10.9959C11.0535 14.9648 11.1105 14.9535 11.1638 14.9314C11.217 14.9094 11.2654 14.877 11.3061 14.8363C11.3468 14.7956 11.3792 14.7472 11.4012 14.694C11.4233 14.6407 11.4346 14.5837 11.4346 14.5261V11.984H13.2794C14.1367 11.984 14.8317 11.289 14.8317 10.4317V6.61677C14.8317 5.72389 14.1078 5.00001 13.2149 5.00001Z" fill="#999999"/>
</g>
<defs>
<clipPath id="clip0_7_18">
<rect width="15" height="15" fill="white"/>
</clipPath>
</defs>
</svg>
