<svg width="18" height="18" viewBox="0 0 18 18" fill="none" xmlns="http://www.w3.org/2000/svg">
<mask id="mask0_7_24" style="mask-type:alpha" maskUnits="userSpaceOnUse" x="0" y="0" width="18" height="18">
<rect x="0.241333" width="17.3853" height="17.3853" fill="#D9D9D9"/>
</mask>
<g mask="url(#mask0_7_24)">
<path d="M7.57572 15.9364C7.39463 15.9364 7.23768 15.8761 7.10487 15.7553C6.97207 15.6346 6.8936 15.4837 6.86945 15.3026L6.65213 13.6184C6.49518 13.558 6.34729 13.4856 6.20845 13.4011C6.06961 13.3166 5.93378 13.226 5.80098 13.1294L4.22544 13.7814C4.05642 13.8538 3.8874 13.8629 3.71837 13.8086C3.54935 13.7542 3.41654 13.6486 3.31996 13.4916L1.97985 11.1555C1.88326 10.9985 1.85308 10.8295 1.8893 10.6484C1.92552 10.4673 2.01607 10.3225 2.16094 10.2138L3.51917 9.18155C3.50709 9.09704 3.50106 9.01554 3.50106 8.93707V8.44811C3.50106 8.36963 3.50709 8.28814 3.51917 8.20363L2.16094 7.17138C2.01607 7.06272 1.92552 6.91784 1.8893 6.73675C1.85308 6.55565 1.88326 6.38663 1.97985 6.22968L3.31996 3.89353C3.41654 3.73658 3.54935 3.63094 3.71837 3.57661C3.8874 3.52228 4.05642 3.53134 4.22544 3.60378L5.80098 4.25572C5.93378 4.15914 6.07262 4.06859 6.2175 3.98408C6.36238 3.89957 6.50726 3.82713 6.65213 3.76676L6.86945 2.08257C6.8936 1.90147 6.97207 1.75056 7.10487 1.62983C7.23768 1.5091 7.39463 1.44873 7.57572 1.44873H10.2922C10.4733 1.44873 10.6302 1.5091 10.763 1.62983C10.8958 1.75056 10.9743 1.90147 10.9984 2.08257L11.2158 3.76676C11.3727 3.82713 11.5206 3.89957 11.6594 3.98408C11.7983 4.06859 11.9341 4.15914 12.0669 4.25572L13.6425 3.60378C13.8115 3.53134 13.9805 3.52228 14.1495 3.57661C14.3185 3.63094 14.4514 3.73658 14.5479 3.89353L15.888 6.22968C15.9846 6.38663 16.0148 6.55565 15.9786 6.73675C15.9424 6.91784 15.8518 7.06272 15.707 7.17138L14.3487 8.20363C14.3608 8.28814 14.3668 8.36963 14.3668 8.44811V8.93707C14.3668 9.01554 14.3548 9.09704 14.3306 9.18155L15.6888 10.2138C15.8337 10.3225 15.9243 10.4673 15.9605 10.6484C15.9967 10.8295 15.9665 10.9985 15.8699 11.1555L14.5298 13.4735C14.4332 13.6305 14.2974 13.7391 14.1224 13.7995C13.9473 13.8599 13.7753 13.8538 13.6062 13.7814L12.0669 13.1294C11.9341 13.226 11.7953 13.3166 11.6504 13.4011C11.5055 13.4856 11.3606 13.558 11.2158 13.6184L10.9984 15.3026C10.9743 15.4837 10.8958 15.6346 10.763 15.7553C10.6302 15.8761 10.4733 15.9364 10.2922 15.9364H7.57572ZM8.97017 11.2279C9.67041 11.2279 10.268 10.9804 10.763 10.4854C11.258 9.99044 11.5055 9.39283 11.5055 8.69259C11.5055 7.99235 11.258 7.39473 10.763 6.89973C10.268 6.40474 9.67041 6.15724 8.97017 6.15724C8.25785 6.15724 7.65722 6.40474 7.16826 6.89973C6.6793 7.39473 6.43482 7.99235 6.43482 8.69259C6.43482 9.39283 6.6793 9.99044 7.16826 10.4854C7.65722 10.9804 8.25785 11.2279 8.97017 11.2279Z" fill="#999999"/>
</g>
</svg>
