<svg width="17" height="18" viewBox="0 0 17 18" fill="none" xmlns="http://www.w3.org/2000/svg">
<path d="M2.1666 6.33977H13.8333V4.25641C13.8333 4.1923 13.8066 4.13353 13.7531 4.0801C13.6997 4.02668 13.6409 3.99997 13.5768 3.99997H2.42304C2.35893 3.99997 2.30016 4.02668 2.24673 4.0801C2.19331 4.13353 2.1666 4.1923 2.1666 4.25641V6.33977ZM2.42304 16.9166C2.0021 16.9166 1.64579 16.7708 1.35413 16.4791C1.06246 16.1875 0.916626 15.8311 0.916626 15.4102V4.25641C0.916626 3.83547 1.06246 3.47916 1.35413 3.18749C1.64579 2.89583 2.0021 2.74999 2.42304 2.74999H3.5769V1.62818C3.5769 1.4455 3.63806 1.293 3.7604 1.17066C3.88272 1.04834 4.03522 0.987183 4.21792 0.987183C4.4006 0.987183 4.55311 1.04834 4.67544 1.17066C4.79776 1.293 4.85892 1.4455 4.85892 1.62818V2.74999H11.173V1.61216C11.173 1.43482 11.2328 1.28631 11.3525 1.16666C11.4721 1.04701 11.6206 0.987183 11.798 0.987183C11.9753 0.987183 12.1238 1.04701 12.2435 1.16666C12.3631 1.28631 12.423 1.43482 12.423 1.61216V2.74999H13.5768C13.9978 2.74999 14.3541 2.89583 14.6458 3.18749C14.9374 3.47916 15.0833 3.83547 15.0833 4.25641V8.80927C14.8835 8.72167 14.6794 8.65089 14.4711 8.59693C14.2628 8.54299 14.0501 8.50052 13.8333 8.46954V7.58975H2.1666V15.4102C2.1666 15.4743 2.19331 15.5331 2.24673 15.5865C2.30016 15.6399 2.35893 15.6666 2.42304 15.6666H7.84131C7.91183 15.8974 7.99703 16.1156 8.09692 16.3213C8.19681 16.5269 8.31032 16.7254 8.43746 16.9166H2.42304ZM13.1602 17.75C12.1196 17.75 11.2345 17.3851 10.5048 16.6554C9.77508 15.9257 9.41023 15.0406 9.41023 14C9.41023 12.9594 9.77508 12.0742 10.5048 11.3445C11.2345 10.6148 12.1196 10.25 13.1602 10.25C14.2008 10.25 15.0859 10.6148 15.8156 11.3445C16.5453 12.0742 16.9102 12.9594 16.9102 14C16.9102 15.0406 16.5453 15.9257 15.8156 16.6554C15.0859 17.3851 14.2008 17.75 13.1602 17.75ZM13.5288 13.8493V11.9166C13.5288 11.8162 13.4925 11.7297 13.4198 11.657C13.3472 11.5844 13.2606 11.5481 13.1602 11.5481C13.0598 11.5481 12.9732 11.5844 12.9006 11.657C12.8279 11.7297 12.7916 11.8162 12.7916 11.9166V13.8365C12.7916 13.9369 12.8098 14.0326 12.8461 14.1234C12.8824 14.2142 12.9396 14.2986 13.0176 14.3766L14.2884 15.6474C14.3611 15.7201 14.4463 15.7577 14.544 15.7604C14.6418 15.7631 14.7296 15.7254 14.8076 15.6474C14.8856 15.5694 14.9246 15.4829 14.9246 15.3878C14.9246 15.2927 14.8856 15.2062 14.8076 15.1282L13.5288 13.8493Z" fill="#666666"/>
</svg>
